<svg width="24" height="24" viewBox="0 0 24 24" fill="none" xmlns="http://www.w3.org/2000/svg">
<path d="M22 11V17C22 21 21 22 17 22H7C3 22 2 21 2 17V7C2 3 3 2 7 2H8.5C10 2 10.33 2.44 10.9 3.2L12.4 5.2C12.78 5.7 13 6 14 6H17C21 6 22 7 22 11Z" stroke="#333333" stroke-width="1.5" stroke-miterlimit="10"/>
<path d="M6.42 10.601H7.275V15.128C7.275 15.74 7.092 16.22 6.726 16.568C6.36 16.916 5.868 17.09 5.25 17.09C4.614 17.09 4.119 16.928 3.765 16.604C3.411 16.274 3.234 15.818 3.234 15.236H4.08C4.08 15.602 4.179 15.887 4.377 16.091C4.581 16.295 4.872 16.397 5.25 16.397C5.604 16.397 5.886 16.286 6.096 16.064C6.312 15.842 6.42 15.536 6.42 15.146V10.601ZM9.54982 14.498V17H8.71282V10.601H11.0708C11.5328 10.601 11.9318 10.682 12.2678 10.844C12.6038 11.006 12.8618 11.234 13.0418 11.528C13.2218 11.822 13.3118 12.164 13.3118 12.554C13.3118 13.178 13.1168 13.658 12.7268 13.994C12.3368 14.33 11.7818 14.498 11.0618 14.498H9.54982ZM11.0708 13.805C11.5208 13.805 11.8658 13.7 12.1058 13.49C12.3458 13.274 12.4658 12.965 12.4658 12.563C12.4658 12.185 12.3458 11.882 12.1058 11.654C11.8658 11.426 11.5358 11.306 11.1158 11.294H9.54982V13.805H11.0708ZM19.1066 16.163C18.8906 16.469 18.5906 16.7 18.2066 16.856C17.8226 17.012 17.3696 17.09 16.8476 17.09C16.3136 17.09 15.8456 16.967 15.4436 16.721C15.0476 16.475 14.7386 16.127 14.5166 15.677C14.3006 15.227 14.1896 14.705 14.1836 14.111V13.553C14.1836 12.587 14.4056 11.84 14.8496 11.312C15.2996 10.778 15.9326 10.511 16.7486 10.511C17.4146 10.511 17.9516 10.682 18.3596 11.024C18.7676 11.366 19.0166 11.852 19.1066 12.482H18.2696C18.1076 11.63 17.6036 11.204 16.7576 11.204C16.1876 11.204 15.7556 11.402 15.4616 11.798C15.1736 12.194 15.0296 12.77 15.0296 13.526V14.048C15.0296 14.522 15.1016 14.936 15.2456 15.29C15.3956 15.644 15.6086 15.917 15.8846 16.109C16.1606 16.301 16.4816 16.397 16.8476 16.397C17.1776 16.397 17.4566 16.361 17.6846 16.289C17.9186 16.217 18.1136 16.1 18.2696 15.938V14.498H16.7936V13.814H19.1066V16.163Z" fill="#333333"/>
</svg>
