<svg width="89" height="87" viewBox="0 0 89 87" fill="none" xmlns="http://www.w3.org/2000/svg">
<path d="M28.75 79.5C41.8668 79.5 52.5 68.8668 52.5 55.75C52.5 42.6332 41.8668 32 28.75 32C15.6332 32 5 42.6332 5 55.75C5 68.8668 15.6332 79.5 28.75 79.5Z" stroke="#C6C6C6" stroke-width="1.5" stroke-linecap="round" stroke-linejoin="round"/>
<path d="M55 82L50 77" stroke="#C6C6C6" stroke-width="1.5" stroke-linecap="round" stroke-linejoin="round"/>
<path d="M34.4201 32.2221C35.3039 45.309 46.6294 55.2016 59.7164 54.3178C72.8033 53.434 82.696 42.1085 81.8122 29.0216C80.9284 15.9346 69.6028 6.04199 56.5159 6.92578C43.4289 7.80957 33.5363 19.1351 34.4201 32.2221Z" stroke="#C6C6C6" stroke-width="1.5" stroke-linecap="round" stroke-linejoin="round"/>
<path d="M33.6945 58.5808L38.3462 53.2553" stroke="#C6C6C6" stroke-width="1.5" stroke-linecap="round" stroke-linejoin="round"/>
</svg>
