<svg width="60" height="60" viewBox="0 0 60 60" fill="none" xmlns="http://www.w3.org/2000/svg">
<path d="M40 40L30 30L20 40" stroke="#333333" stroke-width="2" stroke-linecap="round" stroke-linejoin="round"/>
<path d="M30 30V52.5" stroke="#333333" stroke-width="2" stroke-linecap="round" stroke-linejoin="round"/>
<path d="M50.975 45.975C53.4134 44.6457 55.3396 42.5422 56.4497 39.9966C57.5598 37.4509 57.7906 34.6081 57.1055 31.9167C56.4205 29.2254 54.8587 26.8388 52.6667 25.1336C50.4747 23.4285 47.7772 22.5019 45 22.5H41.85C41.0933 19.5731 39.6829 16.8559 37.7249 14.5525C35.7669 12.2491 33.3121 10.4196 30.5453 9.20154C27.7784 7.98343 24.7714 7.40842 21.7503 7.51973C18.7292 7.63104 15.7727 8.42577 13.103 9.84418C10.4332 11.2626 8.1198 13.2678 6.33658 15.709C4.55335 18.1502 3.34675 20.9639 2.80747 23.9385C2.2682 26.9132 2.41029 29.9713 3.22306 32.8832C4.03583 35.795 5.49813 38.4847 7.50002 40.75" stroke="#333333" stroke-width="2" stroke-linecap="round" stroke-linejoin="round"/>
<path d="M40 40L30 30L20 40" stroke="#333333" stroke-width="2" stroke-linecap="round" stroke-linejoin="round"/>
</svg>
